<svg xmlns="http://www.w3.org/2000/svg" viewBox="0 0 64 64" role="img" aria-label="Hearth">
  <!-- The Ember: a warm flame with a heart glowing at its core. "hear-t-h = heart + warmth." -->
  <defs>
    <radialGradient id="ember" cx="50%" cy="38%" r="65%">
      <stop offset="0" stop-color="#f7c25a"/>
      <stop offset="0.6" stop-color="#ee6c4d"/>
      <stop offset="1" stop-color="#c9472f"/>
    </radialGradient>
  </defs>
  <path d="M32 7c1 8 6 12 10 17 4 5 5 9 5 13a15 15 0 0 1-30 0c0-5 2-8 5-11 0 3 1 5 3 6 3-9-1-14 7-25Z" fill="url(#ember)"/>
  <path d="M32 44c-3.7-2.6-6-4.9-6-7.4a3.1 3.1 0 0 1 6-1 3.1 3.1 0 0 1 6 1c0 2.5-2.3 4.8-6 7.4Z" fill="#ffffff"/>
</svg>
